<svg xmlns="http://www.w3.org/2000/svg" xmlns:xlink="http://www.w3.org/1999/xlink" viewBox="0 0 505.68 161.94"><defs><style>.cls-1{fill:url(#Degradado_sin_nombre_551);}.cls-2{fill:url(#Degradado_sin_nombre_555);}.cls-3{fill:url(#Degradado_sin_nombre_555-2);}.cls-4{fill:url(#Degradado_sin_nombre_551-2);}</style><linearGradient id="Degradado_sin_nombre_551" y1="96.45" x2="505.68" y2="96.45" gradientUnits="userSpaceOnUse"><stop offset="0" stop-color="#166ed8"/><stop offset="1" stop-color="#47a070"/></linearGradient><linearGradient id="Degradado_sin_nombre_555" x1="37.81" y1="80.97" x2="497.09" y2="80.97" gradientUnits="userSpaceOnUse"><stop offset="0" stop-color="#47a070"/><stop offset="1" stop-color="#166ed8"/></linearGradient><linearGradient id="Degradado_sin_nombre_555-2" x1="285.18" y1="67.04" x2="312.98" y2="67.04" xlink:href="#Degradado_sin_nombre_555"/><linearGradient id="Degradado_sin_nombre_551-2" x1="2553.81" y1="441.55" x2="2612.3" y2="441.55" gradientTransform="translate(-2006.67 1400.97) rotate(-40.53)" xlink:href="#Degradado_sin_nombre_551"/></defs><g id="Capa_2" data-name="Capa 2"><g id="Capa_1-2" data-name="Capa 1"><path class="cls-1" d="M146.45,82.19c51.44,4.53,85.74,56.62,144,31.71,48-22.65,72-58.89,120-77,35.67-14.5,69.15,0,95.16,18V161.94H0C15,116.9,78.55,76.81,146.45,82.19Z"/><path class="cls-2" d="M39.85,161.94c12.84-52.27,68.71-103.71,131.38-97C189,67.08,204.72,78,220,88.56c24.25,16.82,49.32,34.2,82.24,15.14,20.46-13.07,36.17-29.86,51.36-46.08,17.6-18.8,34.23-36.56,57.2-48.31C436.83-5,464.6,2.12,495.66,31.21l1.43-1.53C465.29-.12,436.72-7.38,409.77,7.46c-23.27,11.9-40,29.78-57.75,48.72C336.92,72.31,321.3,89,301.1,101.9c-31.72,18.38-55.15,2.13-80-15.06-15.45-10.71-31.42-21.79-49.69-24-29.14-3.13-59.31,6.07-85,25.92C62.31,107.49,44.56,134,37.81,161.44Z"/><path class="cls-3" d="M299.08,53.1A13.94,13.94,0,1,1,285.18,67,13.94,13.94,0,0,1,299.08,53.1Zm0,24.75A10.82,10.82,0,1,0,288.29,67,10.81,10.81,0,0,0,299.08,77.85Z"/><circle class="cls-4" cx="243.48" cy="57.85" r="8"/></g></g></svg>