<svg xmlns="http://www.w3.org/2000/svg" xmlns:xlink="http://www.w3.org/1999/xlink" viewBox="0 0 216.14 216.14"><defs><style>.cls-1{fill:url(#Degradado_sin_nombre_557);}.cls-2{fill:#fff;}</style><linearGradient id="Degradado_sin_nombre_557" y1="108.07" x2="216.14" y2="108.07" gradientUnits="userSpaceOnUse"><stop offset="0" stop-color="#166ed8"/><stop offset="1" stop-color="#47a070"/></linearGradient></defs><g id="Capa_2" data-name="Capa 2"><g id="Capa_1-2" data-name="Capa 1"><circle class="cls-1" cx="108.07" cy="108.07" r="108.07"/><g id="OUTLINE"><path class="cls-2" d="M117.67,103.36h-6.82v-2.73a4.1,4.1,0,0,0-4.1-4.09H104a4.09,4.09,0,0,0-4.09,4.09v2.73H93.11a4.1,4.1,0,0,0-4.1,4.09V121.1a4.1,4.1,0,0,0,4.1,4.09h24.56a4.1,4.1,0,0,0,4.1-4.09V107.45A4.1,4.1,0,0,0,117.67,103.36Zm-15-2.73A1.36,1.36,0,0,1,104,99.27h2.73a1.36,1.36,0,0,1,1.37,1.36v2.73h-5.46ZM119,121.1a1.39,1.39,0,0,1-1.37,1.37H93.11a1.38,1.38,0,0,1-1.37-1.37v-8.19H119Zm0-10.92H91.74v-2.73a1.36,1.36,0,0,1,1.37-1.36h24.56a1.37,1.37,0,0,1,1.37,1.36Z"/><path class="cls-2" d="M121.44,77.91a1.38,1.38,0,0,0-.64-.42l-1.72-4.3.26-1.58L122.2,73l1.36,2a1.35,1.35,0,0,0-.09,1.89l20.47,23.2A1.37,1.37,0,1,0,146,98.36h0L132.8,83.42l8-6.86,3.2,3.2a1.36,1.36,0,0,0,1.93-1.93L135,66.91a1.37,1.37,0,0,0-1.85-.07l-.63.54-5.62-4.5L118.52,48.5a6.84,6.84,0,0,0-3.73-3l-6.24-2.07h0l-.19,0h0a1.49,1.49,0,0,0-.47,0l-4.6.92a6.77,6.77,0,0,0-4.34,2.91l-9.37,14-4.38,1.1-.49-.69a1.36,1.36,0,0,0-1.83-.37L65.1,72.18a1.36,1.36,0,1,0,1.43,2.32h0l9.21-5.67L82,77.6,64.91,92.79a1.36,1.36,0,1,0,1.81,2L91.24,73l4-3,.52,4.18-2.65,2.66-.4-.4a1.36,1.36,0,0,0-1.91,0L64.88,101a1.37,1.37,0,1,0,1.87,2L84,86.64l8,8L64.83,122.88a1.37,1.37,0,0,0,2,1.9l35.48-36.85a1.36,1.36,0,0,0,0-1.91l-.57-.57,5.22-7.84,2.69,4.49,1.08,3.23L110,86a1.37,1.37,0,0,0-.17,1.9l30,36.84a1.36,1.36,0,0,0,2.12-1.72l-23.1-28.35,7.78-6.48,17.32,20.2a1.36,1.36,0,0,0,2.07-1.77h0ZM134,69.74l4.88,4.89L131,81.37l-4.56-5.17ZM112.4,49.24a3.82,3.82,0,0,0,.29-1.6l1.23.41a4.12,4.12,0,0,1,2.24,1.82l8.52,14.6a1.21,1.21,0,0,0,.33.38l5.42,4.34-4.79,4.09-1.37-2.06a1.49,1.49,0,0,0-.53-.47l-3.93-2,.26-1.56a6.84,6.84,0,0,0-.74-4.39L112.2,49.76ZM84.05,75.77l-6-8.37,5.12-3.15,5.36,7.52ZM95.76,61.38a6.85,6.85,0,0,0-1,4.54l.12,1L90.68,70l-3.82-5.33,3.85-1a1.32,1.32,0,0,0,.8-.56l9.67-14.5a4.06,4.06,0,0,1,2.6-1.74l1.45-.29Zm-1.85,31.3L86,84.76l5.73-5.42L99,86.58h0l.42.42Zm5.81-9.2L95,78.8l3.13-3.13a1.41,1.41,0,0,0,.39-1.14l-1.12-9a4.08,4.08,0,0,1,.62-2.72l10.63-16.55.35.11a1.37,1.37,0,0,1,.86,1.73l0,.08L102.76,66a1.36,1.36,0,0,0,2,1.67l5.76-3.45a3.34,3.34,0,0,1-.19,3.37ZM112,80.82l-3.44-5.72,4-6a6.09,6.09,0,0,0-.76-7.66,1.35,1.35,0,0,0-1.66-.21l-3.35,2,4.08-10.21,6.06,11.1a4.14,4.14,0,0,1,.44,2.63L117,69.33v0l-.62,3.76a1.3,1.3,0,0,0,.07.73l2,4.9-5.44,4.67-.78-2.32a1.59,1.59,0,0,0-.12-.27Zm5.09,11.68-4.36-5.35,7.5-6.43,4.58,5.34Z"/><path class="cls-2" d="M124.49,50.14a1.27,1.27,0,0,0,.34,0l10.91-2.73a1.37,1.37,0,1,0-.66-2.65l-10.92,2.73a1.37,1.37,0,0,0,.33,2.69Z"/><path class="cls-2" d="M128.63,56.63a1.38,1.38,0,0,0,1,1.66L140.54,61a1.37,1.37,0,0,0,1.65-1,1.35,1.35,0,0,0-1-1.65l-10.92-2.73A1.36,1.36,0,0,0,128.63,56.63Z"/><path class="cls-2" d="M82.94,45.9,91.13,50a1.37,1.37,0,0,0,1.22-2.45l-8.18-4.09a1.37,1.37,0,1,0-1.23,2.44Z"/><path class="cls-2" d="M71.27,59.69l.25,0,15-2.73A1.36,1.36,0,1,0,86,54.26h0L71,57a1.38,1.38,0,0,0-1.1,1.59A1.36,1.36,0,0,0,71.27,59.69Z"/></g></g></g></svg>