<svg xmlns="http://www.w3.org/2000/svg" xmlns:xlink="http://www.w3.org/1999/xlink" viewBox="0 0 216.14 216.14"><defs><style>.cls-1{fill:url(#Degradado_sin_nombre_557);}.cls-2{fill:#fff;}</style><linearGradient id="Degradado_sin_nombre_557" y1="108.07" x2="216.14" y2="108.07" gradientUnits="userSpaceOnUse"><stop offset="0" stop-color="#166ed8"/><stop offset="1" stop-color="#47a070"/></linearGradient></defs><g id="Capa_2" data-name="Capa 2"><g id="Capa_1-2" data-name="Capa 1"><circle class="cls-1" cx="108.07" cy="108.07" r="108.07"/><path class="cls-2" d="M122,90.67h-1.41a1.25,1.25,0,0,1-1.19-.83c-.16-.41-.32-.81-.51-1.21a1.27,1.27,0,0,1,.26-1.43l1-1a3.86,3.86,0,0,0,0-5.44l-3.63-3.62a3.85,3.85,0,0,0-5.44,0l-1,1a1.28,1.28,0,0,1-1.44.26c-.39-.18-.8-.35-1.21-.52a1.25,1.25,0,0,1-.83-1.19V75.27a3.86,3.86,0,0,0-3.85-3.85H97.63a3.86,3.86,0,0,0-3.85,3.85v1.41A1.26,1.26,0,0,1,93,77.87c-.41.16-.81.33-1.21.51a1.27,1.27,0,0,1-1.43-.26l-1-1a3.85,3.85,0,0,0-5.44,0l-3.62,3.63a3.86,3.86,0,0,0,0,5.45l1,1a1.27,1.27,0,0,1,.26,1.43c-.18.4-.35.8-.51,1.22a1.25,1.25,0,0,1-1.2.82H78.38a3.85,3.85,0,0,0-3.85,3.85v5.14a3.85,3.85,0,0,0,3.85,3.85h1.41a1.26,1.26,0,0,1,1.19.83c.16.41.33.81.51,1.21a1.27,1.27,0,0,1-.26,1.43l-1,1a3.87,3.87,0,0,0,0,5.44l3.63,3.63a3.87,3.87,0,0,0,5.44,0l1-1a1.25,1.25,0,0,1,1.43-.25c.4.18.8.34,1.21.51a1.25,1.25,0,0,1,.84,1.19v1.41a3.85,3.85,0,0,0,3.85,3.85h5.14a3.85,3.85,0,0,0,3.85-3.85V117.5a1.26,1.26,0,0,1,.83-1.19c.41-.16.81-.32,1.21-.5a1.25,1.25,0,0,1,1.43.25l1,1a3.86,3.86,0,0,0,5.44,0l3.63-3.63a3.87,3.87,0,0,0,0-5.44l-1-1a1.28,1.28,0,0,1-.26-1.44c.19-.39.35-.8.52-1.21a1.26,1.26,0,0,1,1.19-.83H122a3.85,3.85,0,0,0,3.85-3.85V94.52A3.85,3.85,0,0,0,122,90.67Zm1.28,9a1.28,1.28,0,0,1-1.28,1.28h-1.41a3.86,3.86,0,0,0-3.59,2.48c-.14.36-.29.72-.45,1.07a3.86,3.86,0,0,0,.77,4.3l1,1a1.28,1.28,0,0,1,0,1.81h0l-3.63,3.63a1.28,1.28,0,0,1-1.81,0l-1-1a3.85,3.85,0,0,0-4.31-.77l-1.06.44a3.87,3.87,0,0,0-2.48,3.59v1.41a1.28,1.28,0,0,1-1.28,1.29H97.63a1.29,1.29,0,0,1-1.28-1.29V117.5a3.86,3.86,0,0,0-2.48-3.59c-.36-.14-.71-.29-1.06-.45a3.87,3.87,0,0,0-4.31.77l-1,1a1.28,1.28,0,0,1-1.81,0h0l-3.63-3.63a1.28,1.28,0,0,1,0-1.81l1-1a3.86,3.86,0,0,0,.77-4.3c-.16-.35-.31-.71-.45-1.06a3.86,3.86,0,0,0-3.59-2.49H78.38a1.28,1.28,0,0,1-1.28-1.28V94.52a1.28,1.28,0,0,1,1.28-1.28h1.41a3.86,3.86,0,0,0,3.6-2.48c.13-.36.28-.71.44-1.06a3.87,3.87,0,0,0-.77-4.31l-1-1a1.28,1.28,0,0,1,0-1.81h0l3.63-3.63a1.28,1.28,0,0,1,1.81,0l1,1a3.87,3.87,0,0,0,4.31.77c.34-.16.7-.31,1-.44a3.87,3.87,0,0,0,2.49-3.6V75.27A1.28,1.28,0,0,1,97.63,74h5.14a1.28,1.28,0,0,1,1.28,1.28v1.41a3.87,3.87,0,0,0,2.48,3.6c.36.13.72.28,1.07.44a3.86,3.86,0,0,0,4.3-.77l1-1a1.28,1.28,0,0,1,1.81,0l3.63,3.62a1.29,1.29,0,0,1,0,1.82l-1,1a3.85,3.85,0,0,0-.77,4.31c.15.35.3.7.44,1.06a3.86,3.86,0,0,0,3.59,2.48H122a1.28,1.28,0,0,1,1.28,1.28v5.14Z"/><path class="cls-2" d="M111.73,96.58c0-.31,0-.62-.07-.92s-.09-.66-.16-1-.11-.41-.16-.62-.16-.52-.25-.78-.12-.36-.19-.53a10.15,10.15,0,0,0-.57-1.2.42.42,0,0,0,0-.1,11.17,11.17,0,0,0-1.16-1.68l-.11-.13c-.18-.21-.36-.41-.55-.61l-.31-.3-.39-.35a5.84,5.84,0,0,0-.48-.39l-.21-.16a11.45,11.45,0,0,0-6.88-2.29l-.38,0c-.28,0-.55,0-.83.06l-.43,0a10.57,10.57,0,0,0-1.25.23,11.56,11.56,0,0,0,0,22.38l.07,0a12.16,12.16,0,0,0,1.34.25c.3,0,.6,0,.9.06s.38,0,.59,0a11.17,11.17,0,0,0,1.14-.06l.12,0c.32,0,.63-.08,1-.14l.38-.09.68-.17L104,108l.54-.2c.18-.07.33-.15.5-.23a6.25,6.25,0,0,0,.64-.31h0a15.37,15.37,0,0,0,3.29-2.37,4.75,4.75,0,0,0,.69-.85,13.8,13.8,0,0,0,1.93-5.27c0-.25.07-.5.09-.75s0-.46,0-.69c0-.08,0-.15,0-.22S111.73,96.75,111.73,96.58Zm-2.56.84c0,.11,0,.21,0,.32,0,.31-.06.62-.11.93a9,9,0,0,1-4.51,6.29l-.47.23-.11,0a9.17,9.17,0,0,1-2.34.71l-.17,0L101,106l-.63,0h-.26a6.84,6.84,0,0,1-.91-.06L99,106a9.65,9.65,0,0,1-1-.19,9,9,0,0,1,0-17.41h0a9,9,0,0,1,2.25-.28,8.13,8.13,0,0,1,1.1.07l.29,0a7.43,7.43,0,0,1,.82.16l.27.07a8.61,8.61,0,0,1,1.95.83l.3.17c.2.13.39.26.59.41l.31.23a8.67,8.67,0,0,1,.72.64,3.58,3.58,0,0,1,.26.29,5.15,5.15,0,0,1,.43.5l.28.36c.13.19.26.38.37.58l.19.32a8.1,8.1,0,0,1,.45.94l.14.38c.08.24.15.48.22.72l.09.37a7.18,7.18,0,0,1,.16,1c0,.09,0,.19,0,.28A8.77,8.77,0,0,1,109.17,97.42Z"/><path class="cls-2" d="M147.69,72.7h-4a1.24,1.24,0,0,1-1.19-.84A27.72,27.72,0,0,0,141,68.38a1.26,1.26,0,0,1,.24-1.45l2.87-2.86a3.86,3.86,0,0,0,0-5.45l-5.46-5.44a3.84,3.84,0,0,0-5.45,0L130.36,56a1.25,1.25,0,0,1-1.44.24,27.77,27.77,0,0,0-3.48-1.45,1.22,1.22,0,0,1-.85-1.19v-4a3.85,3.85,0,0,0-3.85-3.85H113a3.85,3.85,0,0,0-3.85,3.85v4a1.25,1.25,0,0,1-.85,1.19,27.77,27.77,0,0,0-3.48,1.45,1.25,1.25,0,0,1-1.44-.24l-2.87-2.87a3.87,3.87,0,0,0-5.44,0l-5.45,5.45a3.86,3.86,0,0,0,0,5.45l4.21,4.21a1.28,1.28,0,0,0,1.81-1.81l-4.21-4.22a1.28,1.28,0,0,1,0-1.81L96.92,55a1.29,1.29,0,0,1,1.82,0l2.86,2.86a3.82,3.82,0,0,0,4.41.73,24,24,0,0,1,3.15-1.31,3.82,3.82,0,0,0,2.59-3.63v-4A1.28,1.28,0,0,1,113,48.32h7.7A1.28,1.28,0,0,1,122,49.6v4a3.82,3.82,0,0,0,2.59,3.63,23.49,23.49,0,0,1,3.15,1.31,3.82,3.82,0,0,0,4.41-.73L135,55a1.28,1.28,0,0,1,1.81,0l5.45,5.45a1.28,1.28,0,0,1,0,1.81l-2.86,2.87a3.82,3.82,0,0,0-.73,4.41A24,24,0,0,1,140,72.68a3.82,3.82,0,0,0,3.63,2.59h4A1.28,1.28,0,0,1,149,76.56v7.7a1.28,1.28,0,0,1-1.28,1.28h-4A3.82,3.82,0,0,0,140,88.13a24,24,0,0,1-1.31,3.15,3.82,3.82,0,0,0,.73,4.41l2.86,2.87a1.28,1.28,0,0,1,0,1.81l-5.45,5.45a1.28,1.28,0,0,1-1.81,0l-4.22-4.21A1.28,1.28,0,1,0,129,103.4l0,0,4.21,4.21a3.86,3.86,0,0,0,5.45,0l5.45-5.45a3.85,3.85,0,0,0,0-5.44l-2.86-2.87a1.24,1.24,0,0,1-.25-1.44A27.3,27.3,0,0,0,142.46,89a1.24,1.24,0,0,1,1.19-.84h4a3.85,3.85,0,0,0,3.85-3.85v-7.7A3.85,3.85,0,0,0,147.69,72.7Z"/><path class="cls-2" d="M128.68,68.61a16.69,16.69,0,0,0-23.59,0,1.28,1.28,0,0,0,1.81,1.81A14.12,14.12,0,0,1,127,90.26l-.13.13a1.28,1.28,0,0,0,1.78,1.85l0,0A16.69,16.69,0,0,0,128.68,68.61Z"/></g></g></svg>