<svg xmlns="http://www.w3.org/2000/svg" xmlns:xlink="http://www.w3.org/1999/xlink" viewBox="0 0 216.14 216.14"><defs><style>.cls-1{fill:url(#Degradado_sin_nombre_557);}.cls-2{fill:#fff;fill-rule:evenodd;}</style><linearGradient id="Degradado_sin_nombre_557" y1="108.07" x2="216.14" y2="108.07" gradientUnits="userSpaceOnUse"><stop offset="0" stop-color="#166ed8"/><stop offset="1" stop-color="#47a070"/></linearGradient></defs><g id="Capa_2" data-name="Capa 2"><g id="Capa_1-2" data-name="Capa 1"><circle class="cls-1" cx="108.07" cy="108.07" r="108.07"/><path class="cls-2" d="M110,63.92A29.29,29.29,0,1,1,89.29,72.5,29.19,29.19,0,0,1,110,63.92Zm-27.9-16a1.21,1.21,0,0,0-.77-.77,1.18,1.18,0,0,0-1.48.77l-2.13,6.59-6.84,0a1.19,1.19,0,0,0-.78,2.14l5.61,4.06-2.15,6.58h0a1.18,1.18,0,0,0,1.81,1.31L81,64.47l5.53,4a1.17,1.17,0,0,0,1.13.22,1.18,1.18,0,0,0,.76-1.49l-2.16-6.58,5.61-4.06h0a1.18,1.18,0,0,0-.69-2.14l-6.93,0ZM82.24,56,81,52.08,79.7,56a1.19,1.19,0,0,1-1.12.82H74.45l3.34,2.42a1.17,1.17,0,0,1,.43,1.32l-1.28,3.93,3.32-2.42a1.15,1.15,0,0,1,1.4,0L85,64.49l-1.27-3.88a1.19,1.19,0,0,1,.42-1.37l3.34-2.42H83.42A1.19,1.19,0,0,1,82.24,56Zm57.91-8.13a1.18,1.18,0,0,0-2.25,0l-2.12,6.59-6.84,0a1.2,1.2,0,0,0-1,.49,1.18,1.18,0,0,0,.27,1.65l5.61,4.06-2.16,6.58h0a1.14,1.14,0,0,0,.16,1.05,1.17,1.17,0,0,0,1.65.26l5.6-4.08,5.52,4a1.18,1.18,0,0,0,1.89-1.27l-2.15-6.58,5.61-4.06h0a1.19,1.19,0,0,0,.48-1,1.17,1.17,0,0,0-1.17-1.18l-6.93,0ZM140.3,56,139,52.08,137.76,56a1.19,1.19,0,0,1-1.12.82H132.5l3.35,2.42a1.19,1.19,0,0,1,.43,1.32L135,64.49l3.32-2.42a1.15,1.15,0,0,1,1.4,0l3.34,2.43-1.27-3.88a1.19,1.19,0,0,1,.42-1.37l3.34-2.42h-4.07A1.17,1.17,0,0,1,140.3,56ZM111.13,38.75l2.12,6.58h6.93a1.18,1.18,0,0,1,1.18,1.18,1.22,1.22,0,0,1-.49,1h0l-5.61,4.06,2.15,6.58a1.18,1.18,0,0,1-.75,1.49,1.22,1.22,0,0,1-1.14-.22l-5.52-4-5.6,4.08a1.18,1.18,0,0,1-1.81-1.32h0l2.16-6.58-5.61-4.06a1.19,1.19,0,0,1-.27-1.65,1.17,1.17,0,0,1,1-.49h6.84l2.13-6.59a1.17,1.17,0,0,1,1.48-.76A1.21,1.21,0,0,1,111.13,38.75Zm.14,8.13L110,43l-1.27,3.93a1.18,1.18,0,0,1-1.12.81h-4.13l3.34,2.42a1.16,1.16,0,0,1,.43,1.32L106,55.36l3.32-2.42a1.18,1.18,0,0,1,1.41,0L114,55.36l-1.27-3.89a1.17,1.17,0,0,1,.42-1.36l3.35-2.42h-4.08A1.17,1.17,0,0,1,111.27,46.88Zm-7.75,41.5,0,15.33h15.4A2.09,2.09,0,0,0,121,102l2.29-11.14a2.12,2.12,0,0,0,0-.94,2,2,0,0,0-.43-.83,2,2,0,0,0-.72-.58,2.11,2.11,0,0,0-.92-.2h-8.09A1.18,1.18,0,0,1,112,87.15a1.12,1.12,0,0,1,.1-.48l.26-.73c1.28-3.65,2-5.59.17-7.24a1.36,1.36,0,0,0-.57-.34,1.55,1.55,0,0,0-.68,0,1.44,1.44,0,0,0-.61.29,1.28,1.28,0,0,0-.38.54l-3.18,7.61c-.64,1.53-2.18,1.64-3.55,1.59Zm-2.34,16.35,0-17.47c-.24-1.25-2.33-1.53-2.33.66v16.32c0,2,1.82,2.3,2.35.49Zm17.76,1.35a4.5,4.5,0,0,0,2.84-1,4.45,4.45,0,0,0,1.55-2.58l2.29-11.15a4.51,4.51,0,0,0,0-2,4.66,4.66,0,0,0-.89-1.76A4.42,4.42,0,0,0,121.23,86h-6.42c1.43-4.12,2-6.44-.71-9a3.71,3.71,0,0,0-1.56-.89,3.77,3.77,0,0,0-1.8,0,3.73,3.73,0,0,0-1.61.78,3.87,3.87,0,0,0-1.07,1.45l-3.18,7.61c-.07.19-.92.16-1.66.12-1.48-3.32-6.76-2.61-6.76,1.92v16.32c0,4.38,5,5.53,6.73,1.84ZM110,68.86A24.36,24.36,0,1,0,127.21,76,24.32,24.32,0,0,0,110,68.86Zm15.54,8.81A22,22,0,1,0,132,93.21a21.9,21.9,0,0,0-6.44-15.54Zm3.5-3.5a26.94,26.94,0,1,0,7.88,19A26.87,26.87,0,0,0,129,74.17Z"/></g></g></svg>