<svg xmlns="http://www.w3.org/2000/svg" xmlns:xlink="http://www.w3.org/1999/xlink" viewBox="0 0 216.14 216.14"><defs><style>.cls-1{fill:url(#Degradado_sin_nombre_557);}.cls-2{fill:#fff;}</style><linearGradient id="Degradado_sin_nombre_557" y1="108.07" x2="216.14" y2="108.07" gradientUnits="userSpaceOnUse"><stop offset="0" stop-color="#166ed8"/><stop offset="1" stop-color="#47a070"/></linearGradient></defs><g id="Capa_2" data-name="Capa 2"><g id="Capa_1-2" data-name="Capa 1"><circle class="cls-1" cx="108.07" cy="108.07" r="108.07"/><path class="cls-2" d="M135.79,96.16a5.31,5.31,0,0,0-3.39-9.39h-6.07V69.46a1.36,1.36,0,0,0-2.72,0V86.77h-3.45a.21.21,0,0,1-.2-.21V78.48h0v-14h0V44.68a5.46,5.46,0,0,0,.72.21h0l.21,0H121l.18,0h.08l.19,0h.67l.19,0h.07l.19,0h.07l.21,0h0a5.94,5.94,0,0,0,.72-.21V63.12a1.36,1.36,0,0,0,2.72,0V42.53a5.42,5.42,0,1,0-10-3,5.26,5.26,0,0,0,.26,1.64c-3.53,1.06-8.94,1.9-13.5-.65-7.25-4.06-14.79-1.77-16.92-1a2.38,2.38,0,0,0-1.54,2.21V62.14a2.36,2.36,0,0,0,3.1,2.24c2.31-.76,8.32-2.19,14,1a16.69,16.69,0,0,0,8.27,2,26.06,26.06,0,0,0,7.18-1.09v11a22.82,22.82,0,0,0-8.88,3,23.24,23.24,0,0,0-4.3,3.27l-1.16,1.11a7.58,7.58,0,0,1-5.28,2.13H95.94a3.46,3.46,0,0,0-3.43-3.09H77.2a3.46,3.46,0,0,0-3.46,3.46v27.69a3.46,3.46,0,0,0,3.46,3.45h4.48a1.36,1.36,0,0,0,0-2.72H77.2a.74.74,0,0,1-.74-.73V87.19a.74.74,0,0,1,.74-.74H92.51a.73.73,0,0,1,.73.74v1h0v25.94h0v.76a.73.73,0,0,1-.73.73H88a1.36,1.36,0,0,0,0,2.72h4.49a3.46,3.46,0,0,0,3.4-2.85h1c2.15,0,3.11.93,4.45,2.22a10.09,10.09,0,0,0,7.86,3.44h8v1.26a4.55,4.55,0,0,0,9.09,0v-1.26h3.94a5.31,5.31,0,0,0,3.88-8.93,5.27,5.27,0,0,0,.9-7.79,5.28,5.28,0,0,0,.88-8.12A.93.93,0,0,1,135.79,96.16ZM123.61,122.4a1.83,1.83,0,0,1-3.65,0v-1.26h3.65Zm-1.83-85.53a2.72,2.72,0,0,1,2.71,2.71,2.65,2.65,0,0,1-.59,1.67l-.08.1-.07.07a.57.57,0,0,1-.11.11l-.1.1-.06,0-.16.12,0,0-.19.12h0l-.22.11h0l-.23.08h0l-.23.06h0l-.24,0h-.57l-.24,0h0l-.23-.06h0l-.22-.08h0l-.2-.1h0l-.19-.12,0,0-.16-.12-.07-.06-.09-.08-.12-.12-.06-.07a.39.39,0,0,1-.08-.1l0,0h0a2.71,2.71,0,0,1,2.16-4.33ZM103.12,63a18.73,18.73,0,0,0-9.23-2.34,22.9,22.9,0,0,0-6.51,1V42.06c2.14-.76,8.43-2.48,14.41.88,5.33,3,11.45,2.1,15.45.93V63.48C113.73,64.62,108,65.73,103.12,63ZM132.4,94.66h-6.61a1.36,1.36,0,0,0,0,2.72h6.29a2.65,2.65,0,0,1,2.64,2.73,2.66,2.66,0,0,1-2.69,2.5h-1l-.17,0h-5.11a1.36,1.36,0,1,0,0,2.71h5.28a2.55,2.55,0,0,1,1.86.79,2.6,2.6,0,0,1,.73,1.89,2.67,2.67,0,0,1-2.7,2.5h-5.17a1.36,1.36,0,1,0,0,2.71h4.51a2.59,2.59,0,0,1,0,5.18h-21c-3.2,0-4.49-1.24-6-2.68s-3.09-3-6.34-3H96V89.54h1.66a10.31,10.31,0,0,0,7.17-2.89L106,85.53A20.43,20.43,0,0,1,117.24,80v6.54a2.93,2.93,0,0,0,2.92,2.93H132.4a2.59,2.59,0,1,1,0,5.17Z"/></g></g></svg>