<svg xmlns="http://www.w3.org/2000/svg" xmlns:xlink="http://www.w3.org/1999/xlink" viewBox="0 0 216.14 216.14"><defs><style>.cls-1{fill:url(#Degradado_sin_nombre_557);}.cls-2{fill:#fff;}</style><linearGradient id="Degradado_sin_nombre_557" y1="108.07" x2="216.14" y2="108.07" gradientUnits="userSpaceOnUse"><stop offset="0" stop-color="#166ed8"/><stop offset="1" stop-color="#47a070"/></linearGradient></defs><g id="Capa_2" data-name="Capa 2"><g id="Capa_1-2" data-name="Capa 1"><circle class="cls-1" cx="108.07" cy="108.07" r="108.07"/><path class="cls-2" d="M150.11,80.29,135.68,61.54a1.68,1.68,0,0,0-2.24-.39l-9.32,5.92H112a1.85,1.85,0,0,0-.47.08l-9.42,2.71-9.77-2.67-9.5-6a1.7,1.7,0,0,0-2.23.36l-16,19.77a1.7,1.7,0,0,0,.22,2.35l8.36,7.19,7.51,10.12a6,6,0,0,0,3.75,10,6.84,6.84,0,0,0-.07.91,6,6,0,0,0,6,6h.06V118a6,6,0,0,0,6,6,7.3,7.3,0,0,0,.94-.07,6,6,0,0,0,10.16,3.63l.92-.91.38.31a6,6,0,0,0,10.13-4.39,6,6,0,0,0,6.06-6.06,6,6,0,0,0,6.06-6.07,6,6,0,0,0,5.11-9.22l5.48-11.48,8.24-7.09A1.69,1.69,0,0,0,150.11,80.29ZM82.27,64.81l6.83,4.34L74.24,87.26l-6-5.13Zm1,38.38,2.06-2.06.2-.18a2.59,2.59,0,0,1,1.4-.57h.27a2.59,2.59,0,0,1,1.85.81,2.66,2.66,0,0,1-.11,3.68l-2,2a2.6,2.6,0,1,1-3.67-3.67Zm5.3,10.52a2.58,2.58,0,0,1,0-3.66l4-4a2.61,2.61,0,0,1,3-.51,2.59,2.59,0,0,1,1.43,2.68,2.73,2.73,0,0,1-.77,1.56l-3.94,3.93a2.6,2.6,0,0,1-3.67,0Zm6,6.1a2.6,2.6,0,0,1,0-3.67l4-4a2.62,2.62,0,0,1,3.13-.41,2.57,2.57,0,0,1,1.24,2.62,2.74,2.74,0,0,1-.77,1.52l-3.93,3.94a2.6,2.6,0,0,1-3.67,0Zm6.87,5.31a2.59,2.59,0,0,1,0-3.66l2.07-2.07a1.54,1.54,0,0,1,.19-.17h0a2.55,2.55,0,0,1,1.14-.53h0l.22,0h.28a2.54,2.54,0,0,1,1.84.82l.17.19a2.68,2.68,0,0,1-.29,3.49l-2,2A2.6,2.6,0,0,1,101.44,125.12ZM133,106.26a2.6,2.6,0,0,1-3.67,0,.57.57,0,0,0-.11-.11l-10.87-11a1.69,1.69,0,1,0-2.4,2.38l11,11.1h0a2.6,2.6,0,0,1-1.84,4.43,2.57,2.57,0,0,1-1.83-.76l-7.35-7.43a1.69,1.69,0,0,0-2.4,2.38l7.23,7.31.12.14a2.59,2.59,0,0,1-3.67,3.66l-4-4a1.69,1.69,0,0,0-2.4,2.38l3.9,3.94.12.13a2.6,2.6,0,1,1-3.67,3.67,3.68,3.68,0,0,0-.38-.31c-.11-.08-.14-.14-.09-.27s.14-.26.2-.4.11-.31.16-.47a6.17,6.17,0,0,0,.22-2.6,6,6,0,0,0-2.53-4.11,5.87,5.87,0,0,0-2.51-1,6,6,0,0,0-1.45-5.44,6,6,0,0,0-4.26-1.87h-.18a6,6,0,0,0-7.3-5.94A5.91,5.91,0,0,0,87.21,97a6,6,0,0,0-4.08,1.53l-6.54-8.8,15.63-19,5,1.36L90.7,83.52A6,6,0,0,0,93,91.66l.27.14h0a4.87,4.87,0,0,0,.71.3,6,6,0,0,0,7.15-2.7L105.33,82l7.55.53L133,102.59A2.6,2.6,0,0,1,133,106.26Zm.7-7.75L114.82,79.64l-.11-.1a1.78,1.78,0,0,0-1-.39l-9.24-.65a1.69,1.69,0,0,0-1.59.85l-4.76,8.39a2.59,2.59,0,0,1-4.51-2.56L100,74l2.57-.74h0l9.6-2.78h11.6l14.48,18.41Zm6.82-12.3-13.39-17L134,64.83l12.51,16.25Z"/><path class="cls-2" d="M116.48,63.9a1.71,1.71,0,0,0,1.2-.5l11.54-11.54a1.69,1.69,0,1,0-2.39-2.4L115.29,61a1.7,1.7,0,0,0,1.19,2.89Z"/><path class="cls-2" d="M97,63.4a1.68,1.68,0,0,0,1.19.5A1.7,1.7,0,0,0,99.43,61L87.88,49.46a1.69,1.69,0,0,0-2.39,2.4Z"/><path class="cls-2" d="M107.36,63.9a1.69,1.69,0,0,0,1.69-1.69V52.65a1.69,1.69,0,1,0-3.38,0v9.56A1.69,1.69,0,0,0,107.36,63.9Z"/><path class="cls-2" d="M105.8,46.52a1.69,1.69,0,1,0,2.59-2,1.72,1.72,0,0,0-2-.07A1.69,1.69,0,0,0,105.8,46.52Z"/></g></g></svg>