<svg xmlns="http://www.w3.org/2000/svg" xmlns:xlink="http://www.w3.org/1999/xlink" viewBox="0 0 216.14 216.14"><defs><style>.cls-1{fill:url(#Degradado_sin_nombre_557);}.cls-2{fill:#fff;}</style><linearGradient id="Degradado_sin_nombre_557" y1="108.07" x2="216.14" y2="108.07" gradientUnits="userSpaceOnUse"><stop offset="0" stop-color="#166ed8"/><stop offset="1" stop-color="#47a070"/></linearGradient></defs><g id="Capa_2" data-name="Capa 2"><g id="Capa_1-2" data-name="Capa 1"><circle class="cls-1" cx="108.07" cy="108.07" r="108.07"/><path class="cls-2" d="M133.49,48.85a1.33,1.33,0,0,0-2.15,1.56,26.74,26.74,0,0,1,5.12,15.8,28.52,28.52,0,0,1-4.7,15.59c-4.54,7-7.57,12.07-8.27,19.5a2.07,2.07,0,0,1-1.5,1.81l-.15,0a2.85,2.85,0,0,1-.41,0H97.61a2.58,2.58,0,0,1-.4,0l-.16,0a2.07,2.07,0,0,1-1.5-1.81c-.7-7.43-3.73-12.54-8.27-19.5a28.52,28.52,0,0,1-4.7-15.59,26.93,26.93,0,0,1,45.33-19.68,1.33,1.33,0,0,0,1.82-1.94,29.6,29.6,0,0,0-49.8,21.62,31.16,31.16,0,0,0,5.12,17c4.33,6.63,7.21,11.48,7.86,18.3a4.68,4.68,0,0,0,2.58,3.79v12.47a3.86,3.86,0,0,0,2.5,3.61,6.1,6.1,0,0,0,6.08,5.84H115a6.09,6.09,0,0,0,6.08-5.84,3.86,3.86,0,0,0,2.5-3.61V105.34a4.71,4.71,0,0,0,2.59-3.79c.64-6.82,3.52-11.67,7.85-18.3a31.16,31.16,0,0,0,5.12-17A29.38,29.38,0,0,0,133.49,48.85Zm-27,62.15H120.9v2.42H98.14V111h3a1.33,1.33,0,1,0,0-2.65h-3v-2.51H120.9v2.51H106.46a1.33,1.33,0,0,0,0,2.65Zm13.29,8H99.29a1.21,1.21,0,0,1-1.15-1.2v-1.73H120.9v1.73A1.21,1.21,0,0,1,119.75,119ZM115,124.6h-10.9a3.44,3.44,0,0,1-3.4-2.93h17.7A3.43,3.43,0,0,1,115,124.6Z"/><path class="cls-2" d="M124.1,73.85a.39.39,0,0,1,.38-.28h1.07a3.06,3.06,0,0,0,3.06-3v-2a3.07,3.07,0,0,0-3.06-3.06H124.4a.4.4,0,0,1-.38-.27,15.38,15.38,0,0,0-1.2-2.88.38.38,0,0,1,.07-.46l.82-.83a3,3,0,0,0,.9-2.16,3,3,0,0,0-.9-2.16l-1.39-1.39a3.07,3.07,0,0,0-4.32,0l-.82.83a.41.41,0,0,1-.47.07A15.14,15.14,0,0,0,113.83,55a.39.39,0,0,1-.27-.38V53.5a3.06,3.06,0,0,0-3.06-3h-2a3.06,3.06,0,0,0-3.06,3v1.08a.4.4,0,0,1-.28.38,15.48,15.48,0,0,0-3,1.19.38.38,0,0,1-.45-.07l-.74-.74a3.07,3.07,0,0,0-4.32,0l-1.39,1.39a3,3,0,0,0-.9,2.16,3,3,0,0,0,.9,2.16l.66.66a.41.41,0,0,1,.07.47,15.38,15.38,0,0,0-1.3,3,.4.4,0,0,1-.39.27h-.88a3.07,3.07,0,0,0-3.06,3.06v2a3.06,3.06,0,0,0,3.06,3h.81a.4.4,0,0,1,.39.28A15.57,15.57,0,0,0,96,77a.4.4,0,0,1-.07.46l-.57.56a3,3,0,0,0-.9,2.16,3,3,0,0,0,.9,2.16l1.39,1.4a3.07,3.07,0,0,0,4.32,0l.57-.57a.38.38,0,0,1,.46-.08,14.82,14.82,0,0,0,3.14,1.29.38.38,0,0,1,.27.38v.82a3.06,3.06,0,0,0,3.06,3.05h2a3.06,3.06,0,0,0,3.06-3.05v-.89a.4.4,0,0,1,.27-.39,14.58,14.58,0,0,0,3-1.3.4.4,0,0,1,.47.08l.66.66a3.07,3.07,0,0,0,4.32,0l1.39-1.4a3,3,0,0,0,.9-2.16,3,3,0,0,0-.9-2.16l-.73-.73a.38.38,0,0,1-.08-.46A15,15,0,0,0,124.1,73.85Zm-2.56-.73a12.75,12.75,0,0,1-1,2.46,3,3,0,0,0,.54,3.58l.73.73a.41.41,0,0,1,0,.57l-1.4,1.39a.4.4,0,0,1-.56,0l-.66-.66a3,3,0,0,0-3.65-.51,12.08,12.08,0,0,1-2.51,1.07,3.08,3.08,0,0,0-2.16,2.93v.89a.4.4,0,0,1-.4.39h-2a.4.4,0,0,1-.4-.39v-.82a3.07,3.07,0,0,0-2.21-2.94,12.16,12.16,0,0,1-2.59-1.06,3,3,0,0,0-1.44-.37,3.08,3.08,0,0,0-2.17.9l-.57.57a.41.41,0,0,1-.56,0l-1.39-1.39a.4.4,0,0,1,0-.57l.56-.57a3.05,3.05,0,0,0,.53-3.61,12.7,12.7,0,0,1-1.06-2.59,3,3,0,0,0-2.94-2.2h-.81a.4.4,0,0,1-.4-.4v-2a.4.4,0,0,1,.4-.4h.88A3.07,3.07,0,0,0,97.3,66a13.53,13.53,0,0,1,1.07-2.51,3.06,3.06,0,0,0-.5-3.65l-.66-.66a.39.39,0,0,1,0-.56l1.39-1.39a.39.39,0,0,1,.56,0l.74.73a3,3,0,0,0,3.58.55,12.09,12.09,0,0,1,2.45-1,3.06,3.06,0,0,0,2.21-2.93V53.5a.4.4,0,0,1,.4-.4h2a.4.4,0,0,1,.4.4v1.15a3,3,0,0,0,2.16,2.92,12.38,12.38,0,0,1,2.38,1,3.06,3.06,0,0,0,3.61-.53l.83-.82a.39.39,0,0,1,.56,0l1.39,1.39a.39.39,0,0,1,0,.56L121,60a3.06,3.06,0,0,0-.52,3.62,12.63,12.63,0,0,1,1,2.37,3,3,0,0,0,2.92,2.16h1.15a.4.4,0,0,1,.4.4v2a.4.4,0,0,1-.4.4h-1.07A3.06,3.06,0,0,0,121.54,73.12Z"/><path class="cls-2" d="M109.52,59.85a9.69,9.69,0,1,0,9.68,9.68A9.69,9.69,0,0,0,109.52,59.85Zm0,16.71a7,7,0,1,1,7-7A7,7,0,0,1,109.52,76.56Z"/></g></g></svg>