<svg xmlns="http://www.w3.org/2000/svg" xmlns:xlink="http://www.w3.org/1999/xlink" viewBox="0 0 216.14 216.14"><defs><style>.cls-1{fill:url(#Degradado_sin_nombre_557);}.cls-2{fill:#fff;}</style><linearGradient id="Degradado_sin_nombre_557" y1="108.07" x2="216.14" y2="108.07" gradientUnits="userSpaceOnUse"><stop offset="0" stop-color="#166ed8"/><stop offset="1" stop-color="#47a070"/></linearGradient></defs><g id="Capa_2" data-name="Capa 2"><g id="Capa_1-2" data-name="Capa 1"><circle class="cls-1" cx="108.07" cy="108.07" r="108.07"/><path class="cls-2" d="M135.85,95.05a13.24,13.24,0,0,0-8.39,3l-6.38-6.38a17.17,17.17,0,0,0,4.13-10.51l13.53-.5a5.3,5.3,0,1,0-.11-2.65l-13.51.5a17.24,17.24,0,0,0-7.68-12.45l2.54-4.6a8,8,0,1,0-2.33-1.28l-2.53,4.61a17.12,17.12,0,0,0-18.31,2.6L90.43,61a13.32,13.32,0,1,0-1.88,1.87l6.38,6.39a17,17,0,0,0-3.85,14.38L79.44,86.78a6.58,6.58,0,1,0,.73,3c0-.13,0-.27,0-.4l11.65-3.14a17.25,17.25,0,0,0,7.37,9l-2.81,5.6A9.29,9.29,0,1,0,98.71,102l2.8-5.6a17.13,17.13,0,0,0,17.7-2.88l6.38,6.38a13.24,13.24,0,1,0,10.26-4.87Zm8-18.56a2.65,2.65,0,1,1-2.65,2.65A2.65,2.65,0,0,1,143.8,76.49ZM122.59,48.65a5.31,5.31,0,1,1-5.3,5.3A5.3,5.3,0,0,1,122.59,48.65Zm-49,45.08a4,4,0,1,1,4-4A4,4,0,0,1,73.54,93.73Zm26.51,15.9A6.63,6.63,0,1,1,93.42,103,6.63,6.63,0,0,1,100.05,109.63Zm-30.49-57A10.61,10.61,0,1,1,88,59.73a1.27,1.27,0,0,0,.09-.47,7.89,7.89,0,0,0-2.33-5.63A7.56,7.56,0,0,0,84,52.29a5.3,5.3,0,1,0-7.67,0,8,8,0,0,0-4.13,7,1.46,1.46,0,0,0,.1.46A10.52,10.52,0,0,1,69.56,52.63ZM80.17,51.3a2.65,2.65,0,1,1,2.65-2.65A2.64,2.64,0,0,1,80.17,51.3Zm0,2.65a5.3,5.3,0,0,1,5.13,4H75A5.33,5.33,0,0,1,80.17,54Zm-7.09,6.54a1.18,1.18,0,0,0,.46.09H86.8a1.27,1.27,0,0,0,.47-.09,10.54,10.54,0,0,1-14.19,0Zm20.34,20A14.59,14.59,0,1,1,108,95.05,14.58,14.58,0,0,1,93.42,80.47Zm35.33,35.7a1.27,1.27,0,0,0,.47.09h13.26a1.27,1.27,0,0,0,.47-.09,10.56,10.56,0,0,1-14.19,0Zm7.1-9.19a2.65,2.65,0,1,1,2.65-2.65A2.64,2.64,0,0,1,135.85,107Zm0,2.65a5.3,5.3,0,0,1,5.13,4H130.71A5.33,5.33,0,0,1,135.85,109.63Zm7.85,5.78a1.28,1.28,0,0,0,.1-.47,7.89,7.89,0,0,0-2.33-5.63,8,8,0,0,0-1.78-1.34,5.3,5.3,0,1,0-7.67,0,8,8,0,0,0-4.13,7,1.46,1.46,0,0,0,.1.46,10.6,10.6,0,1,1,15.71,0Z"/></g></g></svg>