<svg xmlns="http://www.w3.org/2000/svg" xmlns:xlink="http://www.w3.org/1999/xlink" viewBox="0 0 216.14 216.14"><defs><style>.cls-1{fill:url(#Degradado_sin_nombre_557);}.cls-2{fill:#fff;}</style><linearGradient id="Degradado_sin_nombre_557" y1="108.07" x2="216.14" y2="108.07" gradientUnits="userSpaceOnUse"><stop offset="0" stop-color="#166ed8"/><stop offset="1" stop-color="#47a070"/></linearGradient></defs><g id="Capa_2" data-name="Capa 2"><g id="Capa_1-2" data-name="Capa 1"><circle class="cls-1" cx="108.07" cy="108.07" r="108.07"/><g id="g777"><g id="g779"><g id="g781"><g id="g803"><path class="cls-2" d="M96.8,73.42a3.87,3.87,0,0,1-2.34-.78,3.93,3.93,0,0,1-1.55-3.74l1.46-10.34L87,50.76a3.94,3.94,0,0,1,2.18-6.59l10.32-1.81,5.14-9.44a3.92,3.92,0,0,1,3.45-2.05h0a3.93,3.93,0,0,1,3.45,2.1l4.91,9.24,10.56,2a3.93,3.93,0,0,1,2.1,6.61l-7.28,7.52L123.24,69a3.93,3.93,0,0,1-5.73,4l-9.31-4.55L98.48,73A4,4,0,0,1,96.8,73.42Zm11.27-38.8a.16.16,0,0,0-.16.09l-5.57,10.23a1.82,1.82,0,0,1-1.32,1l-11.22,2a.18.18,0,0,0-.14.13.16.16,0,0,0,0,.19l8,8.46a1.84,1.84,0,0,1,.5,1.55L96.62,69.43h0a.16.16,0,0,0,.07.19.18.18,0,0,0,.19,0l10.53-5a1.9,1.9,0,0,1,1.63,0l10.14,5,.07,0a.19.19,0,0,0,.2,0,.14.14,0,0,0,.07-.17L118,57.9a1.9,1.9,0,0,1,.51-1.54l7.92-8.18a.19.19,0,0,0,0-.19c0-.1-.1-.12-.14-.12l-11.46-2.14a1.87,1.87,0,0,1-1.31-1l-5.33-10.05a.17.17,0,0,0-.17-.1Z"/></g><path class="cls-2" d="M146.45,91.68l-5.51-7a7.3,7.3,0,0,0-5.21-2.82H99.14a1.88,1.88,0,1,0,0,3.75h5.09l-4.78,6.11a3.92,3.92,0,0,1-2.26,1.38H73.37l4.78-6.12a4,4,0,0,1,2.25-1.37h1.88a1.88,1.88,0,0,0,0-3.75H80.4a7.3,7.3,0,0,0-5.2,2.82l-5.51,7A3.43,3.43,0,0,0,69,95.3a2.81,2.81,0,0,0,2.62,1.51H78.1v24.35a5.62,5.62,0,0,0,5.62,5.62h48.7a5.62,5.62,0,0,0,5.62-5.62V96.81h6.47a2.82,2.82,0,0,0,2.63-1.51A3.43,3.43,0,0,0,146.45,91.68ZM81.84,121.16V96.81H97.19A7.34,7.34,0,0,0,102.4,94l3.79-4.86V123H83.72A1.88,1.88,0,0,1,81.84,121.16Zm52.45-24.35v24.35a1.87,1.87,0,0,1-1.87,1.87H109.94V89.13L113.73,94a7.38,7.38,0,0,0,5.21,2.82Zm-15.35-3.75a3.93,3.93,0,0,1-2.25-1.38l-4.78-6.11h23.82A4,4,0,0,1,138,86.94l4.78,6.12Z"/><path class="cls-2" d="M90.71,85.57a1.88,1.88,0,0,0,0-3.75h0a1.88,1.88,0,1,0,0,3.75Z"/></g></g></g></g></g></svg>